<svg xmlns="http://www.w3.org/2000/svg" width="70" height="70" viewBox="0 0 70 70" style="width: 100%; height: 100%;"><desc>Made with illustrio</desc>
  
<g class="base"><g fill="none" fill-rule="evenodd" stroke="none" class="main-fill">
    
    <path fill="none" d="M28.9290909,2.66509091 C27.2599091,0.995272727 25.0396364,0.0757272727 22.6780909,0.0757272727 C20.3165455,0.0757272727 18.0962727,0.995272727 16.4258182,2.66509091 L15.9097273,3.18181818 L15.393,2.66509091 C13.7231818,0.995272727 11.5029091,0.0757272727 9.14136364,0.0757272727 C6.77981818,0.0757272727 4.55954545,0.995272727 2.88909091,2.66509091 C-0.558090909,6.11227273 -0.558090909,11.7211818 2.88909091,15.1683636 L15.4598182,27.7384545 C15.5794545,27.8580909 15.7410909,27.9249091 15.9097273,27.9249091 C16.0783636,27.9249091 16.2406364,27.8580909 16.3596364,27.7384545 L28.9290909,15.1683636 C32.3756364,11.7211818 32.3756364,6.11227273 28.9290909,2.66509091 L28.9290909,2.66509091 Z M22.2727273,13.3636364 L19.7272727,13.3636364 C19.6019091,13.3636364 19.4784545,13.3260909 19.3740909,13.2567273 L16.1553636,11.1109091 L13.9319091,15.5571818 C13.8504545,15.7207273 13.7021818,15.8403636 13.5259091,15.8880909 C13.4724545,15.9020909 13.4177273,15.9090909 13.3636364,15.9090909 C13.2395455,15.9090909 13.1160909,15.8721818 13.0104545,15.8021818 L9.19227273,13.2567273 C8.90018182,13.062 8.82127273,12.6668182 9.016,12.3740909 C9.21072727,12.0813636 9.60590909,12.0024545 9.89863636,12.1978182 L13.1167273,14.3436364 L15.3401818,9.89736364 C15.4216364,9.73445455 15.5699091,9.61354545 15.7461818,9.56709091 C15.9230909,9.52 16.1101818,9.55054545 16.2629091,9.65236364 L19.9200909,12.0909091 L22.2727273,12.0909091 C22.6246364,12.0909091 22.9090909,12.376 22.9090909,12.7272727 C22.9090909,13.0785455 22.6246364,13.3636364 22.2727273,13.3636364 L22.2727273,13.3636364 Z" transform="translate(19.09 21)" stroke="none" class="main-fill"></path>
  </g></g><style>
          .main-fill {fill: #000000;}
          .main-stroke {stroke: #000000;}
          .secondary-fill {fill: #bdff4f;}
          .secondary-stroke {stroke: #bdff4f;}

          .main-fill--darken {fill: #000000;}
          .main-stroke--darken {stroke: #000000;}
          .secondary-fill--darken {fill: #a0ff02;}
          .secondary-stroke--darken {stroke: #a0ff02;}

          .main-fill--darkener {fill: #000000;}
          .main-stroke--darkener {stroke: #000000;}
          .secondary-fill--darkener {fill: #81ce00;}
          .secondary-stroke--darkener {stroke: #81ce00;}
        </style></svg>