<svg xmlns="http://www.w3.org/2000/svg" width="70" height="70" viewBox="0 0 70 70" style="width: 100%; height: 100%;"><desc>Made with illustrio</desc>
  
<g class="base"><g fill="none" fill-rule="evenodd" stroke="none" class="main-fill">
    
    <path fill="none" d="M32.2789091,17.8162727 C30.94,16.4105455 30.2024545,14.6032727 30.2024545,12.7272727 C30.2024545,10.8519091 30.94,9.04463636 32.2789091,7.63890909 C32.4494545,7.46009091 32.4717273,7.19727273 32.3826364,6.96754545 C32.2929091,6.73718182 32.0498182,6.57809091 31.8035455,6.56090909 C31.668,6.55136364 31.5318182,6.54309091 31.3930909,6.54309091 C28.6630909,6.54309091 26.236,8.14863636 25.2668182,10.4802727 C23.7675455,9.21963636 21.3754545,7.50463636 18.522,6.52145455 C18.9413636,4.82427273 19.5331818,3.83472727 20.3235455,2.51363636 C20.4972727,2.22218182 20.6799091,1.91863636 20.8682727,1.59090909 C20.9764545,1.40509091 20.9828182,1.17727273 20.8854545,0.985090909 C20.7880909,0.792909091 20.601,0.663727273 20.3865455,0.640181818 L20.3222727,0.633181818 C20.125,0.611545455 19.9277273,0.590545455 19.726,0.590545455 C16.1152727,0.590545455 13.4769091,2.41690909 12.0743636,5.87872727 C5.76227273,6.83390909 1.00163636,12.0762727 0.798,12.3028182 C0.581636364,12.5446364 0.581636364,12.9105455 0.798,13.1523636 C1.001,13.3795455 5.76227273,18.6206364 12.0743636,19.5764545 C13.4896364,23.086 16.0624545,24.8646364 19.7266364,24.8646364 C19.9245455,24.8646364 20.118,24.8449091 20.3120909,24.8232727 L20.3859091,24.815 C20.5997273,24.7920909 20.7880909,24.6622727 20.8848182,24.4700909 C20.9821818,24.2779091 20.9764545,24.0500909 20.8682727,23.8636364 C20.6792727,23.5365455 20.4979091,23.233 20.3235455,22.9421818 C19.5331818,21.6210909 18.9413636,20.6315455 18.522,18.9337273 C21.3754545,17.9499091 23.7675455,16.2355455 25.2668182,14.9749091 C26.236,17.3059091 28.6630909,18.9120909 31.3930909,18.9120909 C31.5369091,18.9120909 31.6775455,18.9025455 31.8601818,18.8910909 C32.1064545,18.8745455 32.3215455,18.7173636 32.4106364,18.487 C32.4997273,18.2566364 32.4494545,17.9944545 32.2789091,17.8162727 L32.2789091,17.8162727 Z M8.27272727,11.4545455 C7.92145455,11.4545455 7.63636364,11.1694545 7.63636364,10.8181818 C7.63636364,10.4669091 7.92145455,10.1818182 8.27272727,10.1818182 C8.624,10.1818182 8.90909091,10.4669091 8.90909091,10.8181818 C8.90909091,11.1694545 8.624,11.4545455 8.27272727,11.4545455 L8.27272727,11.4545455 Z" transform="translate(18.455 22.273)" stroke="none" class="main-fill"></path>
  </g></g><style>
          .main-fill {fill: #000000;}
          .main-stroke {stroke: #000000;}
          .secondary-fill {fill: #bdff4f;}
          .secondary-stroke {stroke: #bdff4f;}

          .main-fill--darken {fill: #000000;}
          .main-stroke--darken {stroke: #000000;}
          .secondary-fill--darken {fill: #a0ff02;}
          .secondary-stroke--darken {stroke: #a0ff02;}

          .main-fill--darkener {fill: #000000;}
          .main-stroke--darkener {stroke: #000000;}
          .secondary-fill--darkener {fill: #81ce00;}
          .secondary-stroke--darkener {stroke: #81ce00;}
        </style></svg>